<?xml version="1.0" encoding="utf-8"?>
<!-- Generator: Adobe Illustrator 25.0.0, SVG Export Plug-In . SVG Version: 6.00 Build 0)  -->
<svg version="1.1" id="Layer_1" xmlns="http://www.w3.org/2000/svg" xmlns:xlink="http://www.w3.org/1999/xlink" x="0px" y="0px"
	 viewBox="0 0 297 67.8" style="enable-background:new 0 0 297 67.8;" xml:space="preserve">
<style type="text/css">
	.st0{fill:#669999;}
</style>
<g>
	<g>
		<path class="st0" d="M125.1,31.2l0.2-0.1c2.3-1.2,3.4-2.5,3.4-3.8c0-1.8-1-2.9-2.9-2.9c-1.3,0-2.7,1-2.7,2.6c0,1.4,0.9,2.8,1.9,4
			L125.1,31.2z M122.9,33.6c-1.1,0.7-2.5,2-2.5,3.9c0,2.5,1.7,4.2,4.3,4.2c1.6,0,2.7-0.6,3.8-1.4l0.3-0.2l-5.6-6.7L122.9,33.6z
			 M141,22.3c4.1-1.3,0-3.2,0-3.2c3.5-2.8-0.2-2.1-0.2-2.1c1.7-2.3-1.4-1.3-1.4-1.3c-1.4-3.5-5.5,4-5.5,4s-2.3,2.6-4.8,3.7
			c-0.9-0.4-1.9-0.6-2.9-0.6c-0.5,0-0.9,0-1.4,0.1c-0.6-0.6-1-1.5-1.4-2.8c-2.3-8.7-4.2-8.7-4.2-8.7c0.6-4.6-1.4-1.9-1.4-1.9
			c-0.3-0.8-0.6,0.1-0.6,0.1c-0.8-0.4-1.1,0.8-1.1,0.8c-1-0.4-1.1,2.3-1.1,2.3c-2.4,0.7-2.2,2-2.2,2l1.7,0.4
			c2.7,3.5,2.7,0.8,2.7,0.8s1.5-0.8-1.9,6.5c-2.8,6.1-0.1,11,2.2,13.8c-0.3,0.6-0.4,1.3-0.4,2c0,3.4,3.1,5.3,6.2,5.5l0.7,3.3
			c-1.8-0.3-4.3,0.6-4.3,0.6l0.7,0.1h6.5l-2-0.9c0,0-0.5-1.8-0.3-3.2c1.8-0.1,3.5-0.8,5.1-2c1.5,1.2,3,1.9,5.1,1.9
			c1.4,0,4.3-0.6,4.3-2.1c0-0.5-0.4-0.9-0.9-0.9c-0.3,0-0.5,0.1-0.8,0.1c-0.3,0.1-0.6,0.1-0.9,0.1c-1.6,0-2.9-0.9-3.7-1.6
			c1.1-1.4,2.3-3.2,3.2-4.6c0.5-0.8,1-0.9,1.3-1.1c0.4-0.1,0.8-0.2,0.8-1c0-0.7-0.5-1-1.3-1.1c0.5-0.4-0.7-0.9-0.7-0.9
			c3.7-0.7,2.3-2.3,2.3-2.3c3.7-1.3,1.8-2,1.8-2c1.6-0.2,0.1-1.3,0.1-1.3C145,23,141,22.3,141,22.3z M136.5,32.1
			c0.8,0,0.8,0.3,0.8,0.4c0,0.3,0,0.3-0.4,0.4c-0.4,0.1-1,0.3-1.7,1.3c-0.9,1.4-2.2,3.3-3.3,4.8l-0.2,0.2l0.2,0.2
			c1.3,1.3,2.8,2,4.3,2c0.4,0,0.7-0.1,1-0.1c0.2-0.1,0.5-0.1,0.7-0.1c0.1,0,0.3,0.2,0.3,0.3c0,0.9-2.2,1.5-3.6,1.5
			c-2.1,0-3.4-0.8-4.9-2l-0.2-0.2l-0.2,0.2c-1.8,1.4-3.6,2.1-5.7,2.1c-3,0-6.1-1.7-6.1-4.9c0-2.8,2.4-4.6,4.4-5.6l0.3-0.2l-0.2-0.3
			c-1.2-1.5-1.7-2.9-1.7-4.2c0-2.3,1.8-4.6,5.7-4.6c2.4,0,4.9,1.1,4.9,3.7c0,1.8-1.6,3.4-4.8,4.9l-0.4,0.2l5.2,6.3l0.2-0.3
			c1.3-1.6,2-2.9,2-3.8c0-0.9-0.6-1.1-1.1-1.3c-0.4-0.2-0.6-0.3-0.6-0.4c0-0.2,0-0.4,0.8-0.4H136.5z"/>
		<g>
			<path class="st0" d="M20,23.4c3.4,0,6.6,1.8,6.7,2.5c0.2,1.1,0.3,2,0.3,2.9c0,0.5-0.3,0.9-0.8,0.9c-0.6,0-0.7-0.7-1-1.3
				c-0.6-1.5-2.2-3.2-5.3-3.2c-4.5,0-6.5,3.6-6.5,8.2c0,4.3,2,8.1,6.7,8.1c4,0,5.3-3.2,6.3-3.2c0.5,0,0.8,0.4,0.8,0.7
				c0,1.6-3.4,4.6-8,4.6c-5.4,0-10-3.9-10-9.6C9.1,27.9,14.1,23.4,20,23.4z"/>
			<path class="st0" d="M38.8,43.6c-6.1,0-10.1-4.4-10.1-10.1c0-5.7,4.1-10.1,10.1-10.1s10.1,4.4,10.1,10.1
				C48.9,39.2,44.8,43.6,38.8,43.6z M38.8,25.2c-3.7,0-5.9,3.6-5.9,8.3c0,4.7,2.2,8.3,5.9,8.3s5.9-3.6,5.9-8.3
				C44.7,28.8,42.5,25.2,38.8,25.2z"/>
			<path class="st0" d="M60.7,43.6c-6.1,0-10.1-4.4-10.1-10.1c0-5.7,4.1-10.1,10.1-10.1s10.1,4.4,10.1,10.1
				C70.8,39.2,66.8,43.6,60.7,43.6z M60.7,25.2c-3.7,0-5.9,3.6-5.9,8.3c0,4.7,2.2,8.3,5.9,8.3s5.9-3.6,5.9-8.3
				C66.6,28.8,64.4,25.2,60.7,25.2z"/>
			<path class="st0" d="M77.7,40.5c0,1.4,1.7,0.7,1.7,1.9c0,0.5-0.3,0.8-1.2,0.8h-4.7c-1,0-1.2-0.3-1.2-0.8c0-1.1,1.5-0.4,1.5-1.9
				V26.4c0-1.4-1.5-0.7-1.5-1.8c0-0.5,0.3-0.8,1.2-0.8h7.3c5.3,0,7.9,2.2,7.9,5.1c0,4.8-5.3,6.8-11.1,6.8V40.5z M77.7,34
				c3.8,0,6.8-2,6.8-4.9c0-2.3-1.5-3.5-4.3-3.5c-1.8,0-2.5,0.3-2.5,1.7V34z"/>
			<path class="st0" d="M97.3,23.4c3.9,0,6.3,1.5,6.4,2c0.2,0.5,0.2,1.9,0.2,2.3c0,0.4-0.2,0.9-0.7,0.9c-1.7,0-0.3-3.4-5.8-3.4
				c-2.1,0-3.3,1.4-3.3,3c0,5.1,11.4,1.2,11.4,8.8c0,3.8-3.3,6.6-8.1,6.6c-4.3,0-7.8-2.4-7.8-4.7c0-0.6,0.4-1.2,1.1-1.2
				c2.1,0,1.2,4.1,6.6,4.1c2.8,0,4.6-1.5,4.6-3.5c0-4.9-11.5-1.6-11.5-8.8C90.2,25.6,93.6,23.4,97.3,23.4z"/>
			<path class="st0" d="M149.9,43.1c-1,0-1.2-0.3-1.2-0.8c0-1.1,1.5-0.4,1.5-1.9V26.4c0-1.4-1.5-0.7-1.5-1.8c0-0.5,0.3-0.8,1.2-0.8
				h12.6c0.7,0,1.1,2.2,1.1,2.8c0,0.8-0.2,1.2-0.8,1.2c-0.5,0-0.7-0.6-1-1c-1-1.2-2.6-1.2-4.6-1.2c-2.8,0-3.1,0.1-3.1,2.2v4.5h4.6
				c1.5,0,1.6-0.9,2.3-0.9c0.6,0,0.7,0.6,0.7,1.5c0,1.7-0.1,2.1-0.7,2.1c-0.6,0-0.6-1-2.4-1h-4.6v6.4c0,1.4,1.5,0.7,1.5,1.9
				c0,0.5-0.3,0.8-1.2,0.8H149.9z"/>
			<path class="st0" d="M165.5,43.1c-1,0-1.2-0.3-1.2-0.8c0-1.1,1.5-0.4,1.5-1.9V26.4c0-1.4-1.5-0.7-1.5-1.8c0-0.5,0.3-0.8,1.2-0.8
				h12.1c1.2,0,1.6,0.4,1.6,2.8c0,0.6-0.1,0.8-0.4,0.8c-0.6,0-0.7-0.5-1.8-1.2c-0.9-0.5-2.1-0.6-4.1-0.6c-2.8,0-3.1,0.1-3.1,1.9v4.3
				h4.6c1.5,0,1.6-0.9,2.3-0.9c0.6,0,0.7,0.6,0.7,1.7c0,1.5,0,2-0.7,2c-0.8,0-0.6-1-2.4-1h-4.6v4.7c0,2.9,0.2,3,1.7,3
				c3.8,0,6.1-0.3,6.7-1.2c0.4-0.6,0.8-1,1.2-1c0.6,0,0.8,0.4,0.8,0.8c0,2.4-0.5,3.1-1.9,3.1H165.5z"/>
			<path class="st0" d="M185.2,36.6c-0.4,1-1.2,3.6-1.2,4.2c0,0.7,1.3,0.4,1.3,1.5c0,0.6-0.3,0.7-0.9,0.7h-3.6
				c-0.5,0-0.7-0.3-0.7-0.7c0-1.2,1.2-0.6,1.6-1.9c2.1-6.9,4.9-13.4,6.6-16.2c0.4-0.7,0.7-1,1.6-1c1,0,1.2,0.1,1.4,0.5
				c3.2,5.6,5.4,12.8,6.9,16.9c0.3,0.9,1.3,0.4,1.3,1.6c0,0.6-0.4,0.8-0.9,0.8h-5c-0.5,0-0.8-0.2-0.8-0.7c0-1.1,1.2-0.8,1.2-1.5
				c0-0.5-0.5-1.7-1.3-4.3H185.2z M192.3,34.7l-3.3-7.9l-3.2,7.9H192.3z"/>
			<path class="st0" d="M207.8,40.5c0,1.4,1.6,0.7,1.6,1.9c0,0.5-0.3,0.8-1.2,0.8h-4.8c-1,0-1.2-0.3-1.2-0.8c0-1.1,1.6-0.4,1.6-1.9
				v-14c0-0.7-0.3-0.9-1.3-0.9c-3.2,0-3.6,2.2-4.8,2.2c-0.5,0-0.7-0.3-0.7-0.8c0-0.6,0.3-1.9,0.5-2.5c0.2-0.6,0.4-0.7,1-0.7h14.4
				c0.6,0,0.8,0.1,1,0.7c0.2,0.6,0.5,1.9,0.5,2.5c0,0.4-0.1,0.8-0.7,0.8c-1.2,0-1.6-2.2-4.8-2.2c-1,0-1.3,0.2-1.3,0.9V40.5z"/>
			<path class="st0" d="M233.8,40.5c0,1.4,1.5,0.7,1.5,1.9c0,0.5-0.3,0.8-1.2,0.8h-4.4c-1,0-1.2-0.3-1.2-0.8c0-1.1,1.5-0.4,1.5-1.9
				v-7h-9.2v7c0,1.4,1.5,0.7,1.5,1.9c0,0.5-0.3,0.8-1.2,0.8h-4.4c-1,0-1.2-0.3-1.2-0.8c0-1.1,1.5-0.4,1.5-1.9V26.4
				c0-1.4-1.5-0.7-1.5-1.8c0-0.5,0.3-0.8,1.2-0.8h4.4c1,0,1.2,0.3,1.2,0.8c0,1.1-1.5,0.4-1.5,1.8v5.3h9.2v-5.3
				c0-1.4-1.5-0.7-1.5-1.8c0-0.5,0.3-0.8,1.2-0.8h4.4c1,0,1.2,0.3,1.2,0.8c0,1.1-1.5,0.4-1.5,1.8V40.5z"/>
			<path class="st0" d="M237.8,43.1c-1,0-1.2-0.3-1.2-0.8c0-1.1,1.5-0.4,1.5-1.9V26.4c0-1.4-1.5-0.7-1.5-1.8c0-0.5,0.3-0.8,1.2-0.8
				H250c1.2,0,1.6,0.4,1.6,2.8c0,0.6-0.1,0.8-0.4,0.8c-0.6,0-0.7-0.5-1.8-1.2c-0.9-0.5-2.1-0.6-4.1-0.6c-2.8,0-3.1,0.1-3.1,1.9v4.3
				h4.6c1.5,0,1.6-0.9,2.3-0.9c0.6,0,0.7,0.6,0.7,1.7c0,1.5,0,2-0.7,2c-0.8,0-0.6-1-2.4-1H242v4.7c0,2.9,0.2,3,1.7,3
				c3.8,0,6.1-0.3,6.7-1.2c0.4-0.6,0.8-1,1.2-1c0.6,0,0.8,0.4,0.8,0.8c0,2.4-0.5,3.1-1.9,3.1H237.8z"/>
			<path class="st0" d="M254.5,43.1c-1,0-1.2-0.3-1.2-0.8c0-1.1,1.5-0.4,1.5-1.9V26.4c0-1.4-1.5-0.7-1.5-1.8c0-0.5,0.3-0.8,1.2-0.8
				h8.8c3.8,0,6.6,1.2,6.6,4.8c0,2.2-2.1,3.8-4.1,4.4v0.1c1.7,2.3,2.8,4.7,3.9,7.3c0.6,1.4,1.9,1,1.9,2.1c0,0.4-0.3,0.7-0.7,0.7
				h-5.9c-0.4,0-0.6-0.3-0.6-0.7c0-1,1.2-0.5,1.2-1.5c0-1.4-2.5-5.3-3.4-6.8l-3.4,0.6v5.7c0,1.4,1.5,0.7,1.5,1.9
				c0,0.5-0.3,0.8-1.2,0.8H254.5z M258.7,33c2.5-0.3,7.1-1,7.1-4.2c0-2.1-1.2-3.2-4.5-3.2c-1.8,0-2.5,0.6-2.5,1.7V33z"/>
			<path class="st0" d="M279.8,23.4c3.9,0,6.3,1.5,6.4,2c0.2,0.5,0.2,1.9,0.2,2.3c0,0.4-0.2,0.9-0.7,0.9c-1.7,0-0.3-3.4-5.8-3.4
				c-2.1,0-3.3,1.4-3.3,3c0,5.1,11.4,1.2,11.4,8.8c0,3.8-3.3,6.6-8.1,6.6c-4.3,0-7.8-2.4-7.8-4.7c0-0.6,0.4-1.2,1.1-1.2
				c2.1,0,1.2,4.1,6.6,4.1c2.8,0,4.6-1.5,4.6-3.5c0-4.9-11.5-1.6-11.5-8.8C272.7,25.6,276.1,23.4,279.8,23.4z"/>
		</g>
	</g>
	<g>
		<path class="st0" d="M104.7,53.7c0.5,0,0.9,0.1,1.2,0.4c0.3,0.3,0.5,0.6,0.5,1c0,0.2-0.1,0.5-0.2,0.6c-0.1,0.2-0.3,0.3-0.6,0.4v0
			c0.4,0.1,0.7,0.3,0.9,0.5c0.2,0.2,0.3,0.5,0.3,0.9c0,0.3-0.1,0.6-0.2,0.8c-0.2,0.2-0.4,0.4-0.6,0.5s-0.6,0.2-1,0.2h-2.2v-5.3
			H104.7z M104.4,55.9c0.3,0,0.5-0.1,0.6-0.2c0.2-0.1,0.2-0.3,0.2-0.5c0-0.2-0.1-0.4-0.2-0.5c-0.1-0.1-0.3-0.2-0.6-0.2h-0.7v1.4
			H104.4z M104.6,58.3c0.3,0,0.6-0.1,0.8-0.2c0.2-0.1,0.3-0.3,0.3-0.6c0-0.2-0.1-0.4-0.3-0.5c-0.2-0.1-0.4-0.2-0.7-0.2h-1v1.5H104.6
			z"/>
		<path class="st0" d="M108.8,53.7l1.3,1.8l1.3-1.8h1.2l-2,2.7v2.6h-1v-2.7l-2-2.7H108.8z"/>
		<path class="st0" d="M118.1,53.7v5.3h-1v-5.3H118.1z"/>
		<path class="st0" d="M121,53.7l3.2,3.7v-3.7h1v5.3h-0.9l-3.2-3.8v3.8h-1v-5.3H121z"/>
		<path class="st0" d="M128,53.7l3.2,3.7v-3.7h1v5.3h-0.9l-3.2-3.8v3.8h-1v-5.3H128z"/>
		<path class="st0" d="M136.9,53.7c0.6,0,1.1,0.1,1.5,0.3s0.8,0.6,1.1,1c0.3,0.4,0.4,0.9,0.4,1.4c0,0.5-0.1,1-0.4,1.4
			s-0.6,0.8-1.1,1s-1,0.4-1.5,0.4c-0.6,0-1.1-0.1-1.5-0.4c-0.5-0.2-0.8-0.6-1.1-1s-0.4-0.9-0.4-1.4c0-0.5,0.1-1,0.4-1.4
			c0.3-0.4,0.6-0.8,1-1S136.3,53.7,136.9,53.7z M135,56.4c0,0.4,0.1,0.7,0.2,1s0.4,0.5,0.7,0.7s0.6,0.2,1,0.2c0.5,0,1-0.2,1.4-0.5
			c0.4-0.3,0.5-0.8,0.5-1.3c0-0.4-0.1-0.7-0.2-1c-0.2-0.3-0.4-0.5-0.7-0.7c-0.3-0.2-0.6-0.2-1-0.2c-0.4,0-0.7,0.1-1,0.2
			s-0.5,0.4-0.7,0.7C135.1,55.7,135,56,135,56.4z"/>
		<path class="st0" d="M142,53.7l1.5,3.4l1.5-3.4h1.1l-2.4,5.4h-0.4l-2.4-5.4H142z"/>
		<path class="st0" d="M149.6,53.7l2.4,5.3h-1.1l-0.6-1.3h-2.4l-0.5,1.3h-1.1l2.2-5.3H149.6z M148.2,57h1.7l-0.9-2.1L148.2,57z"/>
		<path class="st0" d="M157.1,53.7v0.8h-1.9v4.5h-1v-4.5h-1.9v-0.8H157.1z"/>
		<path class="st0" d="M159.8,53.7v5.3h-1v-5.3H159.8z"/>
		<path class="st0" d="M164.5,53.7c0.6,0,1.1,0.1,1.5,0.3s0.8,0.6,1.1,1c0.3,0.4,0.4,0.9,0.4,1.4c0,0.5-0.1,1-0.4,1.4
			s-0.6,0.8-1.1,1s-1,0.4-1.5,0.4c-0.6,0-1.1-0.1-1.5-0.4c-0.5-0.2-0.8-0.6-1.1-1s-0.4-0.9-0.4-1.4c0-0.5,0.1-1,0.4-1.4
			c0.3-0.4,0.6-0.8,1-1S163.9,53.7,164.5,53.7z M162.6,56.4c0,0.4,0.1,0.7,0.2,1s0.4,0.5,0.7,0.7s0.6,0.2,1,0.2c0.5,0,1-0.2,1.4-0.5
			c0.4-0.3,0.5-0.8,0.5-1.3c0-0.4-0.1-0.7-0.2-1c-0.2-0.3-0.4-0.5-0.7-0.7c-0.3-0.2-0.6-0.2-1-0.2c-0.4,0-0.7,0.1-1,0.2
			s-0.5,0.4-0.7,0.7C162.7,55.7,162.6,56,162.6,56.4z"/>
		<path class="st0" d="M170.1,53.7l3.2,3.7v-3.7h1v5.3h-0.9l-3.2-3.8v3.8h-1v-5.3H170.1z"/>
		<path class="st0" d="M181.3,53.7c0.5,0,0.9,0.1,1.2,0.4c0.3,0.3,0.5,0.7,0.5,1.1c0,0.5-0.2,0.8-0.5,1.1c-0.3,0.3-0.7,0.4-1.3,0.4
			h-1v2.2h-1v-5.3H181.3z M181,56c0.3,0,0.5-0.1,0.6-0.2c0.2-0.1,0.2-0.3,0.2-0.6c0-0.5-0.3-0.7-0.9-0.7h-0.7V56H181z"/>
		<path class="st0" d="M188,53.7v0.8h-2.4v1.4h2.3v0.8h-2.3v1.5h2.5v0.8h-3.5v-5.3H188z"/>
		<path class="st0" d="M194.3,53.7v0.8h-1.9v4.5h-1v-4.5h-1.9v-0.8H194.3z"/>
	</g>
</g>
</svg>
